<svg width="20" height="18" viewBox="0 0 20 18" fill="none" xmlns="http://www.w3.org/2000/svg">
<path d="M5.83332 7.4375V10.5625C5.83332 11.0803 5.41359 11.5 4.89582 11.5H0.9375C0.419727 11.5 0 11.0803 0 10.5625V7.4375C0 6.91973 0.419727 6.5 0.9375 6.5H4.89582C5.41359 6.5 5.83332 6.91973 5.83332 7.4375ZM0 13.6875V16.8125C0 17.3303 0.419727 17.75 0.9375 17.75H4.89582C5.41359 17.75 5.83332 17.3303 5.83332 16.8125V13.6875C5.83332 13.1697 5.41359 12.75 4.89582 12.75H0.9375C0.419727 12.75 0 13.1697 0 13.6875ZM4.89582 0.25H0.9375C0.419727 0.25 0 0.669727 0 1.1875V4.3125C0 4.83027 0.419727 5.25 0.9375 5.25H4.89582C5.41359 5.25 5.83332 4.83027 5.83332 4.3125V1.1875C5.83332 0.669727 5.41359 0.25 4.89582 0.25ZM8.02082 17.75H19.0625C19.5803 17.75 20 17.3303 20 16.8125V13.6875C20 13.1697 19.5803 12.75 19.0625 12.75H8.02082C7.50305 12.75 7.08332 13.1697 7.08332 13.6875V16.8125C7.08332 17.3303 7.50305 17.75 8.02082 17.75ZM7.08332 1.1875V4.3125C7.08332 4.83027 7.50305 5.25 8.02082 5.25H19.0625C19.5803 5.25 20 4.83027 20 4.3125V1.1875C20 0.669727 19.5803 0.25 19.0625 0.25H8.02082C7.50305 0.25 7.08332 0.669727 7.08332 1.1875ZM8.02082 11.5H19.0625C19.5803 11.5 20 11.0803 20 10.5625V7.4375C20 6.91973 19.5803 6.5 19.0625 6.5H8.02082C7.50305 6.5 7.08332 6.91973 7.08332 7.4375V10.5625C7.08332 11.0803 7.50305 11.5 8.02082 11.5Z" fill="#6E584E"/>
</svg>
